<svg width="56" height="69" viewBox="0 0 56 69" fill="none" xmlns="http://www.w3.org/2000/svg">
<path d="M50.4471 25.5117H25.7354C22.8732 25.5117 20.5527 27.8833 20.5527 30.809V30.9212C20.5527 33.8467 22.873 36.2185 25.7354 36.2185H50.4471C53.3093 36.2185 55.6297 33.8469 55.6297 30.9212V30.809C55.6297 27.8835 53.3093 25.5117 50.4471 25.5117Z" fill="#FDBF38"/>
<path d="M30.2649 36.2188H5.55326C2.69083 36.2188 0.370605 38.5905 0.370605 41.5161V41.6282C0.370605 44.5537 2.69083 46.9255 5.55326 46.9255H30.2649C33.1271 46.9255 35.4476 44.554 35.4476 41.6282V41.5161C35.4474 38.5905 33.1271 36.2188 30.2649 36.2188Z" fill="#FDBF38"/>
<path d="M30.2649 57.6309H5.55326C2.69083 57.6309 0.370605 60.0024 0.370605 62.9279V63.0401C0.370605 65.9656 2.69083 68.3374 5.55326 68.3374H30.2649C33.1271 68.3374 35.4476 65.9658 35.4476 63.0401V62.9279C35.4474 60.0024 33.1271 57.6309 30.2649 57.6309Z" fill="#FDBF38"/>
<path d="M30.2649 46.9248H5.55326C2.69083 46.9248 0.370605 49.2964 0.370605 52.2221V52.3343C0.370605 55.2598 2.69083 57.6316 5.55326 57.6316H30.2649C33.1271 57.6316 35.4476 55.26 35.4476 52.3343V52.2221C35.4474 49.2964 33.1271 46.9248 30.2649 46.9248Z" fill="#FFD085"/>
<path d="M50.4471 36.2188H25.7354C22.8732 36.2188 20.5527 38.5903 20.5527 41.5161V41.6282C20.5527 44.5537 22.873 46.9255 25.7354 46.9255H50.4471C53.3093 46.9255 55.6297 44.554 55.6297 41.6282V41.5161C55.6297 38.5905 53.3093 36.2188 50.4471 36.2188Z" fill="#FFD085"/>
<path d="M50.4471 57.6309H25.7354C22.8732 57.6309 20.5527 60.0024 20.5527 62.9282V63.0403C20.5527 65.9658 22.873 68.3376 25.7354 68.3376H50.4471C53.3093 68.3376 55.6297 65.9661 55.6297 63.0403V62.9282C55.6297 60.0024 53.3093 57.6309 50.4471 57.6309Z" fill="#FFD085"/>
<path d="M50.4471 46.9248H25.7354C22.8732 46.9248 20.5527 49.2964 20.5527 52.2221V52.3343C20.5527 55.2598 22.873 57.6316 25.7354 57.6316H50.4471C53.3093 57.6316 55.6297 55.26 55.6297 52.3343V52.2221C55.6297 49.2964 53.3093 46.9248 50.4471 46.9248Z" fill="#FDBF38"/>
<path d="M24.3396 68.3297C31.3422 68.3297 37.019 62.471 37.019 55.2439C37.019 48.0169 31.3422 42.1582 24.3396 42.1582C17.3369 42.1582 11.6602 48.0169 11.6602 55.2439C11.6602 62.471 17.3369 68.3297 24.3396 68.3297Z" fill="#35C9AD"/>
<path d="M28.5236 57.9394C28.5236 55.8143 26.836 54.0855 24.7615 54.0855H23.9179C23.0932 54.0855 22.4223 53.396 22.4223 52.5484C22.4223 51.7009 23.093 51.0114 23.9179 51.0114H26.7746C27.4005 51.0114 27.908 50.4927 27.908 49.853C27.908 49.2133 27.4005 48.6945 26.7746 48.6945H25.4731V47.5266C25.4731 46.8869 24.9655 46.3682 24.3397 46.3682C23.7138 46.3682 23.2063 46.8869 23.2063 47.5266V48.7659C21.4711 49.1079 20.1558 50.6729 20.1558 52.5487C20.1558 54.6737 21.8436 56.4026 23.9181 56.4026H24.7618C25.5864 56.4026 26.2571 57.0921 26.2571 57.9396C26.2571 58.7871 25.5864 59.4766 24.7618 59.4766H21.9045C21.2787 59.4766 20.7712 59.9954 20.7712 60.635C20.7712 61.2747 21.2787 61.7935 21.9045 61.7935H23.2063V62.9614C23.2063 63.6011 23.7138 64.1199 24.3397 64.1199C24.9655 64.1199 25.4731 63.6011 25.4731 62.9614V61.7221C27.2082 61.3799 28.5236 59.8151 28.5236 57.9394Z" fill="white"/>
<path d="M16.9982 15.1929H19.1409C21.0307 15.1929 22.1076 12.9859 20.9706 11.4428L13.4902 1.29117C12.5738 0.0474732 10.747 0.0474732 9.83057 1.29117L2.3499 11.4428C1.21291 12.9856 2.28983 15.1929 4.17961 15.1929H6.32235V31.5876H16.9977V15.1929H16.9982Z" fill="#3E3EE2"/>
</svg>
