<svg width="161" height="30" viewBox="0 0 161 30" fill="none" xmlns="http://www.w3.org/2000/svg">
<path d="M14.2 29.0348C11.2667 29.0348 8.74667 28.4481 6.64 27.2748C4.56 26.0748 2.96 24.3948 1.84 22.2348C0.72 20.0481 0.16 17.4748 0.16 14.5148C0.16 11.5548 0.72 8.99476 1.84 6.83476C2.96 4.67476 4.56 3.0081 6.64 1.83476C8.74667 0.634765 11.2667 0.0347643 14.2 0.0347643C16.0933 0.0347643 17.88 0.328098 19.56 0.914765C21.2667 1.50143 22.6667 2.34143 23.76 3.43476L22.08 7.51477C20.88 6.50143 19.6533 5.7681 18.4 5.31477C17.1467 4.83477 15.8 4.59477 14.36 4.59477C11.5067 4.59477 9.33333 5.46143 7.84 7.19477C6.34667 8.90143 5.6 11.3414 5.6 14.5148C5.6 17.6881 6.34667 20.1414 7.84 21.8748C9.33333 23.6081 11.5067 24.4748 14.36 24.4748C15.8 24.4748 17.1467 24.2481 18.4 23.7948C19.6533 23.3148 20.88 22.5681 22.08 21.5548L23.76 25.6348C22.6667 26.7014 21.2667 27.5414 19.56 28.1548C17.88 28.7414 16.0933 29.0348 14.2 29.0348ZM35.2622 29.0348C33.2355 29.0348 31.4755 28.6214 29.9822 27.7948C28.4889 26.9681 27.3289 25.7948 26.5022 24.2748C25.6755 22.7281 25.2622 20.9148 25.2622 18.8348C25.2622 16.7548 25.6755 14.9548 26.5022 13.4348C27.3289 11.9148 28.4889 10.7414 29.9822 9.91476C31.4755 9.0881 33.2355 8.67477 35.2622 8.67477C37.2889 8.67477 39.0489 9.0881 40.5422 9.91476C42.0355 10.7414 43.1955 11.9148 44.0222 13.4348C44.8489 14.9548 45.2622 16.7548 45.2622 18.8348C45.2622 20.9148 44.8489 22.7281 44.0222 24.2748C43.1955 25.7948 42.0355 26.9681 40.5422 27.7948C39.0489 28.6214 37.2889 29.0348 35.2622 29.0348ZM35.2622 25.2348C36.7555 25.2348 37.9555 24.7014 38.8622 23.6348C39.7689 22.5414 40.2222 20.9414 40.2222 18.8348C40.2222 16.7014 39.7689 15.1148 38.8622 14.0748C37.9555 13.0081 36.7555 12.4748 35.2622 12.4748C33.7689 12.4748 32.5689 13.0081 31.6622 14.0748C30.7555 15.1148 30.3022 16.7014 30.3022 18.8348C30.3022 20.9414 30.7555 22.5414 31.6622 23.6348C32.5689 24.7014 33.7689 25.2348 35.2622 25.2348ZM49.3891 28.6348V9.07476H54.2691V12.1148C54.9357 10.9948 55.8291 10.1414 56.9491 9.55476C58.0957 8.9681 59.3757 8.67477 60.7891 8.67477C65.4024 8.67477 67.7091 11.3548 67.7091 16.7148V28.6348H62.7091V16.9548C62.7091 15.4348 62.4157 14.3281 61.8291 13.6348C61.2691 12.9414 60.3891 12.5948 59.1891 12.5948C57.7224 12.5948 56.5491 13.0614 55.6691 13.9948C54.8157 14.9014 54.3891 16.1148 54.3891 17.6348V28.6348H49.3891ZM72.7875 28.6348V9.07476H77.6675V12.1148C78.3342 10.9948 79.2275 10.1414 80.3475 9.55476C81.4942 8.9681 82.7742 8.67477 84.1875 8.67477C88.8008 8.67477 91.1075 11.3548 91.1075 16.7148V28.6348H86.1075V16.9548C86.1075 15.4348 85.8142 14.3281 85.2275 13.6348C84.6675 12.9414 83.7875 12.5948 82.5875 12.5948C81.1208 12.5948 79.9475 13.0614 79.0675 13.9948C78.2142 14.9014 77.7875 16.1148 77.7875 17.6348V28.6348H72.7875ZM105.826 29.0348C103.613 29.0348 101.706 28.6214 100.106 27.7948C98.5059 26.9681 97.2659 25.7948 96.3859 24.2748C95.5326 22.7548 95.1059 20.9548 95.1059 18.8748C95.1059 16.8481 95.5193 15.0748 96.3459 13.5548C97.1993 12.0348 98.3593 10.8481 99.8259 9.99476C101.319 9.11477 103.013 8.67477 104.906 8.67477C107.679 8.67477 109.866 9.55476 111.466 11.3148C113.093 13.0748 113.906 15.4748 113.906 18.5148V19.9948H99.9059C100.279 23.4881 102.279 25.2348 105.906 25.2348C106.999 25.2348 108.093 25.0748 109.186 24.7548C110.279 24.4081 111.279 23.8748 112.186 23.1548L113.586 26.5148C112.653 27.2881 111.479 27.9014 110.066 28.3548C108.653 28.8081 107.239 29.0348 105.826 29.0348ZM105.106 12.0748C103.639 12.0748 102.453 12.5281 101.546 13.4348C100.639 14.3414 100.093 15.5681 99.9059 17.1148H109.746C109.639 15.4881 109.186 14.2481 108.386 13.3948C107.613 12.5148 106.519 12.0748 105.106 12.0748ZM153.781 29.0348C151.727 29.0348 149.941 28.6214 148.421 27.7948C146.901 26.9414 145.727 25.7414 144.901 24.1948C144.074 22.6481 143.661 20.8348 143.661 18.7548C143.661 16.6748 144.074 14.8881 144.901 13.3948C145.727 11.8748 146.901 10.7148 148.421 9.91476C149.941 9.0881 151.727 8.67477 153.781 8.67477C155.034 8.67477 156.274 8.87476 157.501 9.27476C158.727 9.67476 159.741 10.2348 160.541 10.9548L159.061 14.4348C158.367 13.8214 157.581 13.3548 156.701 13.0348C155.847 12.7148 155.021 12.5548 154.221 12.5548C152.487 12.5548 151.141 13.1014 150.181 14.1948C149.247 15.2614 148.781 16.7948 148.781 18.7948C148.781 20.7681 149.247 22.3281 150.181 23.4748C151.141 24.5948 152.487 25.1548 154.221 25.1548C154.994 25.1548 155.821 24.9948 156.701 24.6748C157.581 24.3548 158.367 23.8748 159.061 23.2348L160.541 26.7548C159.741 27.4481 158.714 28.0081 157.461 28.4348C156.234 28.8348 155.007 29.0348 153.781 29.0348Z" fill="#292949"/>
<path d="M115.026 28.6348L125.786 14.2748L115.426 0.434764H121.386L128.706 10.5548L136.026 0.434764H142.026L131.666 14.2748L142.386 28.6348H136.386L128.706 18.0748L121.066 28.6348H115.026Z" fill="#3E3EE2"/>
</svg>
