<svg width="80" height="81" viewBox="0 0 80 81" fill="none" xmlns="http://www.w3.org/2000/svg">
<rect y="12.3037" width="77.0318" height="68.0658" rx="20" fill="#3E3EE2" fill-opacity="0.1"/>
<g clip-path="url(#clip0_73_283)">
<path d="M48.377 30.5172C49.0017 28.0269 49.4255 25.4835 49.6436 22.9151C49.8309 22.3122 50.1393 22.4777 50.4146 22.3004C50.4981 22.2437 50.5867 22.1962 50.679 22.1585C51.7804 21.5792 52.8819 21.792 53.1352 24.9723C53.4657 30.2098 50.8773 30.8955 48.377 30.5172Z" fill="#EFCBA5"/>
<path d="M36.889 25.6816C36.8875 25.6051 36.9005 25.529 36.9271 25.458C36.9536 25.387 36.9933 25.3225 37.0438 25.2684C37.0942 25.2143 37.1543 25.1717 37.2204 25.1431C37.2866 25.1146 37.3575 25.1007 37.4287 25.1023C37.5719 25.1023 37.7092 25.1633 37.8104 25.272C37.9116 25.3806 37.9685 25.528 37.9685 25.6816V27.6442C37.9685 28.0926 38.1344 28.5226 38.4298 28.8397C38.7252 29.1567 39.1258 29.3348 39.5435 29.3348C39.6858 29.3379 39.8214 29.3999 39.9221 29.5079C40.0227 29.6159 40.0804 29.7615 40.0833 29.9142C40.0804 30.0668 40.0227 30.2124 39.9221 30.3204C39.8214 30.4284 39.6858 30.4904 39.5435 30.4935C38.8395 30.4935 38.1643 30.1933 37.6665 29.6589C37.1687 29.1246 36.889 28.3999 36.889 27.6442V25.6816ZM33.7389 25.1969C33.6352 25.1969 33.5326 25.1748 33.437 25.1319C33.3414 25.089 33.2547 25.0261 33.182 24.9469C33.1092 24.8677 33.0518 24.7737 33.0132 24.6705C32.9745 24.5673 32.9554 24.4569 32.9568 24.3457C32.9797 24.1387 33.0725 23.9479 33.2176 23.8095C33.3628 23.671 33.5502 23.5946 33.7444 23.5946C33.9385 23.5946 34.126 23.671 34.2711 23.8095C34.4163 23.9479 34.5091 24.1387 34.5319 24.3457C34.5319 24.5714 34.4484 24.7879 34.2996 24.9476C34.1509 25.1072 33.9492 25.1969 33.7389 25.1969ZM42.8699 25.1969C42.7663 25.1969 42.6637 25.1748 42.5681 25.1319C42.4725 25.089 42.3858 25.0261 42.313 24.9469C42.2403 24.8677 42.1829 24.7737 42.1442 24.6705C42.1056 24.5673 42.0864 24.4569 42.0879 24.3457C42.1107 24.1387 42.2035 23.9479 42.3487 23.8095C42.4938 23.671 42.6813 23.5946 42.8754 23.5946C43.0696 23.5946 43.257 23.671 43.4022 23.8095C43.5473 23.9479 43.6401 24.1387 43.663 24.3457C43.663 24.4584 43.6421 24.5701 43.6016 24.6742C43.561 24.7782 43.5016 24.8726 43.4268 24.9518C43.352 25.031 43.2633 25.0934 43.1658 25.1355C43.0683 25.1776 42.964 25.1985 42.8589 25.1969H42.8699ZM35.2809 21.2245H31.6681C31.525 21.2245 31.3877 21.1634 31.2865 21.0548C31.1853 20.9461 31.1284 20.7988 31.1284 20.6451C31.1312 20.4924 31.189 20.3468 31.2896 20.2388C31.3902 20.1309 31.5259 20.0688 31.6681 20.0658H35.2809C35.4232 20.0688 35.5588 20.1309 35.6594 20.2388C35.76 20.3468 35.8178 20.4924 35.8206 20.6451C35.8206 20.7988 35.7638 20.9461 35.6625 21.0548C35.5613 21.1634 35.424 21.2245 35.2809 21.2245ZM44.9407 21.2245H41.3279C41.2566 21.2261 41.1858 21.2122 41.1196 21.1836C41.0534 21.1551 40.9933 21.1125 40.9429 21.0584C40.8925 21.0042 40.8528 20.9397 40.8262 20.8687C40.7996 20.7977 40.7867 20.7217 40.7882 20.6451C40.7882 20.4915 40.845 20.3441 40.9463 20.2355C41.0475 20.1269 41.1848 20.0658 41.3279 20.0658H44.9407C45.081 20.0718 45.2139 20.1351 45.3122 20.2428C45.4104 20.3505 45.4667 20.4944 45.4694 20.6451C45.4694 20.7968 45.414 20.9423 45.3152 21.0507C45.2164 21.159 45.0819 21.2214 44.9407 21.2245ZM49.7871 20.6924C49.5431 20.3095 49.2186 19.9936 48.8398 19.7703C48.4972 19.5402 48.2158 19.219 48.0228 18.8379C47.8298 18.4568 47.7319 18.0286 47.7384 17.5949V16.0461C47.7384 14.6155 47.0004 13.0668 45.3152 13.4215L43.9604 13.788C42.2268 14.2727 40.4428 14.519 38.6514 14.521C36.5616 14.5206 34.4833 14.1899 32.4832 13.5397C32.1071 13.4103 31.7028 13.4103 31.3267 13.5397C30.8175 13.6926 30.3659 14.0135 30.0359 14.4569C29.7058 14.9003 29.5139 15.4438 29.4873 16.0106L29.333 18.4934C29.2844 19.4647 28.8901 20.3788 28.2316 21.0471C27.6103 21.7975 27.108 22.6522 26.7446 23.5772C26.9679 25.9334 27.3694 28.2663 27.9452 30.5526C28.0003 30.8009 28.0554 31.0373 28.1214 31.2619C28.1875 31.4866 28.2977 31.9477 28.3968 32.2551C28.9142 34.1883 29.9073 35.9363 31.2716 37.3152C31.8747 37.9328 32.5572 38.4544 33.2983 38.864L33.5406 39.0176C33.8993 39.2006 34.267 39.3624 34.6421 39.5024C35.7573 39.9818 36.9437 40.2421 38.1447 40.2709C39.7429 40.2208 41.3112 39.7929 42.7378 39.0176C43.5706 38.5828 44.336 38.0125 45.0068 37.327C46.3816 35.9541 47.3958 34.2171 47.9476 32.2905C48.0247 31.9831 48.1018 31.6521 48.212 31.2974C48.2851 31.0541 48.3403 30.8051 48.3772 30.5526C49.0019 28.0623 49.4257 25.5189 49.6439 22.9506C49.6643 22.8475 49.7082 22.7514 49.7716 22.671C49.835 22.5905 49.916 22.5282 50.0074 22.4895C50.1475 22.4523 50.2839 22.4009 50.4149 22.3358C50.3326 21.7415 50.1171 21.1776 49.7871 20.6924ZM40.8212 34.6551H35.9418C35.8714 34.6566 35.8015 34.6431 35.7361 34.6153C35.6707 34.5875 35.6111 34.5459 35.5608 34.4931C35.5105 34.4402 35.4706 34.3771 35.4433 34.3075C35.4161 34.2379 35.4021 34.1631 35.4021 34.0876C35.3976 34.0086 35.4082 33.9294 35.4333 33.855C35.4584 33.7805 35.4974 33.7124 35.548 33.6548C35.5985 33.5972 35.6596 33.5513 35.7273 33.52C35.795 33.4887 35.868 33.4726 35.9418 33.4728H40.8212C40.9624 33.4759 41.0969 33.5383 41.1958 33.6466C41.2946 33.7549 41.35 33.9005 41.3499 34.0521C41.3544 34.1296 41.3441 34.2072 41.3196 34.2802C41.295 34.3532 41.2568 34.42 41.2073 34.4765C41.1577 34.533 41.0979 34.578 41.0315 34.6087C40.9651 34.6394 40.8935 34.6552 40.8212 34.6551Z" fill="#F7DEBF"/>
<path d="M47.7381 14.6272V16.0459C47.7381 14.6153 47.0001 13.0666 45.3149 13.4212L43.9601 13.7877C42.2265 14.2725 40.4426 14.5188 38.6511 14.5208C36.5613 14.5204 34.483 14.1897 32.483 13.5395C32.1069 13.4101 31.7025 13.4101 31.3264 13.5395C30.8172 13.6924 30.3657 14.0133 30.0356 14.4567C29.7055 14.9001 29.5136 15.4436 29.487 16.0104L29.3328 18.4932C29.2841 19.4645 28.8898 20.3786 28.2313 21.0469C27.6101 21.7973 27.1077 22.652 26.7444 23.577C26.7444 23.2814 26.6783 22.9976 26.6563 22.6903C26.6563 22.6193 26.5902 22.6311 26.5571 22.6075C26.5869 22.5464 26.6126 22.4832 26.6342 22.4183C27.0247 21.4029 27.5639 20.461 28.2313 19.6282C28.8898 18.9599 29.2841 18.0458 29.3328 17.0745L29.4429 14.568C29.4673 13.9991 29.6582 13.453 29.9884 13.0072C30.3187 12.5615 30.7715 12.2389 31.2824 12.0853C31.6585 11.9559 32.0628 11.9559 32.4389 12.0853C34.4378 12.7412 36.5169 13.0719 38.607 13.0666C40.3977 13.0628 42.181 12.8206 43.9161 12.3454L45.2709 11.967C46.9561 11.6478 47.7381 13.1966 47.7381 14.6272Z" fill="#E5CAAC"/>
<path d="M28.0005 30.553C25.5883 30.8486 23.143 30.0801 23.4735 24.9727C23.6828 21.7214 24.8833 21.5677 26.0068 22.1943C26.2214 22.3097 26.4244 22.4483 26.6126 22.6081C26.6126 22.6081 26.7118 22.6081 26.7118 22.6909C26.9211 25.3477 27.3524 27.979 28.0005 30.553Z" fill="#EFCBA5"/>
<path d="M54.5452 8.46788C54.5309 9.41493 54.3267 10.3476 53.9466 11.2023C53.5664 12.0571 53.0193 12.814 52.3423 13.4216C52.0362 13.719 51.7947 14.0849 51.6348 14.4935C51.475 14.9021 51.4006 15.3433 51.4171 15.7861C51.4053 17.9267 51.1763 20.0595 50.7342 22.1468C50.6419 22.1844 50.5533 22.232 50.4698 22.2886C50.3824 21.7068 50.1672 21.1556 49.842 20.6808C49.5981 20.2978 49.2736 19.9819 48.8948 19.7586C48.5522 19.5285 48.2707 19.2073 48.0778 18.8262C47.8848 18.4451 47.7868 18.0169 47.7933 17.5832V14.6275C47.7933 13.197 47.0553 11.6482 45.3701 12.0029L44.0153 12.3812C42.2802 12.8564 40.497 13.0986 38.7063 13.1024C36.6161 13.1078 34.537 12.777 32.5382 12.1211C32.1621 11.9917 31.7577 11.9917 31.3816 12.1211C30.1888 10.7451 29.2473 9.14095 28.606 7.39201C33.948 -1.80607 41.9115 0.771283 43.4976 1.25601C47.0003 2.3437 48.1348 5.90234 50.4809 8.46788C52.827 11.0334 54.5452 8.46788 54.5452 8.46788Z" fill="#35383A"/>
<path d="M31.3267 12.0856C30.8175 12.2385 30.366 12.5594 30.0359 13.0028C29.7058 13.4462 29.5139 13.9897 29.4873 14.5565L29.3331 17.0748C29.2844 18.0461 28.8901 18.9602 28.2317 19.6285C27.5642 20.4613 27.025 21.4032 26.6345 22.4186C26.613 22.4835 26.5872 22.5467 26.5574 22.6078C26.3692 22.448 26.1662 22.3094 25.9516 22.194C25.9516 20.527 25.9516 18.3043 26.1058 16.8147C26.1468 15.826 26.0084 14.8382 25.6983 13.9063C24.3766 9.41364 28.518 7.46289 28.518 7.46289C29.1801 9.17682 30.1325 10.7442 31.3267 12.0856Z" fill="#272B2D"/>
<path d="M46.2295 45.496V45.567V46.5128L43.9715 50.0596L38.332 48.1325L38.8387 47.5295L44.9628 40.1049L45.095 39.9512L45.6677 40.3059C45.6677 40.566 45.7889 40.8379 45.8329 41.1216C45.8382 41.224 45.8382 41.3266 45.8329 41.429C45.8329 41.7128 45.9211 41.9847 45.9541 42.2684C45.9541 42.5285 46.0202 42.7886 46.0422 43.0487C46.0642 43.3088 46.0973 43.6517 46.1083 43.9473C46.1193 44.2428 46.1083 44.2783 46.1083 44.432C46.1891 44.8024 46.2295 45.1571 46.2295 45.496Z" fill="#F3F1FA"/>
<path d="M66.9475 57.8044H66.8814C66.3307 50.4151 62.1452 48.8427 57.7173 47.6723C56.1506 47.2292 54.6126 46.6763 53.1132 46.0171L52.4634 45.7215L53.0692 44.1846C54.5685 44.8438 56.1065 45.3967 57.6733 45.8397C62.4976 47.1048 66.9806 48.8427 66.9475 57.8044Z" fill="#4A6CA8"/>
<path d="M23.936 45.7333L23.3082 46.0171C21.8148 46.6792 20.28 47.2284 18.7151 47.6604C14.122 48.8427 9.81536 50.5215 9.50695 58.6201C9.18753 48.9255 13.7806 47.1402 18.7041 45.8397C20.2692 45.4038 21.804 44.8507 23.2972 44.1846L23.936 45.7333Z" fill="#4A6CA8"/>
<path d="M66.8818 57.8035H51.825V74.2489H18.528C18.528 74.048 18.5941 73.8351 18.6271 73.6223C18.6717 73.3998 18.7048 73.1749 18.7262 72.9484C18.7262 72.7593 18.7813 72.5583 18.8033 72.3455C18.951 71.0508 19.0319 69.7483 19.0457 68.444V68.3021C19.0662 64.9595 18.8896 61.6188 18.517 58.3001C18.509 58.2225 18.4869 58.1473 18.4519 58.0788C18.4168 58.0104 18.3696 57.95 18.3128 57.9011C18.256 57.8523 18.1909 57.8159 18.121 57.7941C18.0512 57.7723 17.978 57.7654 17.9056 57.774C17.8333 57.7825 17.7633 57.8063 17.6995 57.8439C17.6357 57.8814 17.5795 57.9322 17.534 57.9931C17.4885 58.054 17.4546 58.124 17.4342 58.199C17.4139 58.2739 17.4075 58.3525 17.4155 58.4301C17.4155 58.903 17.5146 59.376 17.5587 59.8252C17.6798 61.0075 17.757 62.1898 17.823 63.2302V63.9632C17.9112 65.5119 17.9332 66.9543 17.9112 68.2785V68.3849C17.9112 69.3189 17.8561 70.2056 17.779 71.0332C17.779 71.3169 17.779 71.5888 17.7019 71.8489C17.7138 72.0181 17.7138 72.1881 17.7019 72.3573C17.7019 72.5228 17.6798 72.6765 17.6358 72.8184C17.6135 73.0408 17.5804 73.2618 17.5367 73.4805C17.5367 73.6814 17.4706 73.8943 17.4265 74.0952C17.4217 74.1345 17.4217 74.1742 17.4265 74.2135H9.85952C9.85952 73.5632 9.85952 72.913 9.85952 72.2627C9.85952 67.8647 9.72734 63.4784 9.51807 59.104C9.51807 58.9385 9.51807 58.7612 9.51807 58.5838C9.81546 50.5207 14.1221 48.8419 18.7152 47.6596C20.2804 47.2237 21.8151 46.6706 23.3083 46.0044L23.9361 45.7207L25.7645 50.367L25.2909 51.0055L22.7245 54.5523L23.4405 55.4035L34.8956 68.8341L35.942 70.1228L38.1449 72.712L40.3478 70.1228L41.4492 68.8223L52.9044 55.3799L53.6313 54.5405L51.065 50.9936L50.5913 50.3552L52.4638 45.7207L53.0696 46.0044C54.5833 46.6656 56.136 47.2186 57.7177 47.6596C62.1456 48.8419 66.3311 50.4143 66.8818 57.8035Z" fill="#4E70B6"/>
<path d="M53.1133 44.1724L52.4634 45.7211C50.2471 44.7039 48.0816 43.5635 45.9758 42.3044C45.9758 42.0206 45.8987 41.7487 45.8547 41.465C45.86 41.3626 45.86 41.2599 45.8547 41.1576C45.8547 40.8738 45.7555 40.6137 45.6895 40.3418C48.0955 41.7664 50.574 43.0453 53.1133 44.1724Z" fill="#2F5184"/>
<path d="M53.7194 54.529L52.9924 55.3684L41.5373 68.8109L40.4358 70.1114L38.2329 72.7005C38.4202 72.3577 39.7309 69.9695 41.2509 66.4108C41.5263 65.7606 41.8016 65.0867 42.088 64.3655C42.3744 63.6443 42.6387 62.9586 42.9141 62.1901C44.1537 58.8319 45.0834 55.3511 45.6898 51.798C45.8329 51.0058 45.9321 50.2019 46.0092 49.4334C46.0863 48.6649 46.1744 47.66 46.1964 46.7851C46.2024 46.746 46.2024 46.706 46.1964 46.6669C46.1964 46.3477 46.1964 46.0285 46.1964 45.7211V45.6501C46.1964 45.3033 46.1964 44.9605 46.1964 44.6216C46.1964 44.4679 46.1964 44.3024 46.1964 44.1368C46.1964 43.9713 46.1964 43.5457 46.1303 43.2383C46.0643 42.9309 46.1303 42.7181 46.0422 42.458C48.1294 43.6627 50.2727 44.7518 52.4637 45.7211L50.6794 50.3792L51.153 51.0177L53.7194 54.529Z" fill="#3A5D9B"/>
<path d="M30.7539 40.2822C30.6108 40.9443 30.5006 41.63 30.4125 42.3039C28.3101 43.5659 26.1484 44.7102 23.9359 45.7325L23.3081 44.1837C25.8574 43.0369 28.3435 41.7343 30.7539 40.2822Z" fill="#2F5184"/>
<path d="M38.1445 72.7009L35.9416 70.1236L34.8401 68.8467L23.4401 55.3806L22.7241 54.5294L25.2905 50.9826L25.7641 50.3441L23.9357 45.7333C26.1557 44.7118 28.3248 43.5674 30.4343 42.3047C30.2948 43.4138 30.2212 44.5314 30.214 45.6505V46.75C30.4453 53.9146 33.0007 61.3393 35.1706 66.3994C36.6796 69.9699 38.0123 72.358 38.1445 72.7009Z" fill="#3A5D9B"/>
<path d="M38.1449 48.0146L38.0898 48.0737L32.968 49.8707L30.2585 45.7446L30.1924 45.65C30.1996 44.5309 30.2732 43.4133 30.4127 42.3042C30.5008 41.6303 30.6109 40.9446 30.7541 40.2825L31.3269 39.916H31.404L38.1449 48.0146Z" fill="#F3F1FA"/>
<path d="M46.2184 46.4775C46.0532 53.713 43.4537 61.2323 41.2618 66.3752L39.896 54.7534L42.2091 52.2825L38.354 48.1327L43.9494 50.0244L46.2184 46.4775Z" fill="#CDE9FF"/>
<path d="M34.2122 52.2356L36.5033 54.7539L35.1705 66.3993C32.8795 61.079 30.1809 53.1578 30.1919 45.6504L32.9676 49.8711L38.0673 48.074L34.2122 52.2356Z" fill="#CDE9FF"/>
<path d="M41.2616 66.4111C39.7416 69.9579 38.4308 72.3225 38.2436 72.7008C38.0673 72.3579 36.7346 69.9698 35.2256 66.4111L36.5033 54.7539H39.8958L41.2616 66.4111Z" fill="#E23E3C"/>
<path d="M42.1759 52.2354L39.8519 54.7063H36.5034L34.2124 52.2354L38.0675 48.0738L38.1226 48.0146L38.2217 48.1447L38.2878 48.0619L42.1759 52.2354Z" fill="#E23E3C"/>
<path d="M45.0507 37.3271V39.8809L44.9186 40.0346L44.8084 40.0937C43.3819 40.8689 41.8136 41.2968 40.2153 41.3469C38.6171 41.2968 37.0488 40.8689 35.6223 40.0937C35.2981 39.9196 34.9853 39.7221 34.686 39.5025C35.8012 39.9819 36.9877 40.2422 38.1887 40.271C39.7869 40.2209 41.3552 39.793 42.7817 39.0178C43.6146 38.5829 44.38 38.0127 45.0507 37.3271Z" fill="#E5CAAC"/>
<path d="M44.9186 40.034L38.7945 47.4587L38.2878 48.0616L38.2217 48.1444L38.1446 48.0143L31.4257 39.8803H31.3486V37.2793C31.9517 37.897 32.6342 38.4185 33.3753 38.8281L33.6176 38.9818C33.9763 39.1647 34.344 39.3265 34.7191 39.4665C35.0183 39.6861 35.3311 39.8836 35.6553 40.0576C37.0819 40.8328 38.6501 41.2607 40.2484 41.3108C41.8466 41.2607 43.4149 40.8328 44.8415 40.0576L44.9186 40.034Z" fill="#F7DEBF"/>
<path d="M43.6519 24.3214C43.6651 24.4408 43.6545 24.5619 43.621 24.6766C43.5874 24.7913 43.5316 24.8971 43.4572 24.9869C43.3828 25.0768 43.2915 25.1488 43.1893 25.198C43.0871 25.2473 42.9764 25.2728 42.8643 25.2728C42.7523 25.2728 42.6416 25.2473 42.5394 25.198C42.4372 25.1488 42.3459 25.0768 42.2715 24.9869C42.1971 24.8971 42.1413 24.7913 42.1077 24.6766C42.0742 24.5619 42.0636 24.4408 42.0768 24.3214C42.0996 24.1144 42.1924 23.9236 42.3376 23.7852C42.4827 23.6468 42.6702 23.5703 42.8643 23.5703C43.0585 23.5703 43.2459 23.6468 43.3911 23.7852C43.5362 23.9236 43.629 24.1144 43.6519 24.3214Z" fill="#563016"/>
<path d="M34.521 24.3214C34.5342 24.4408 34.5237 24.5619 34.4901 24.6766C34.4565 24.7913 34.4007 24.8971 34.3263 24.9869C34.2519 25.0768 34.1606 25.1488 34.0584 25.198C33.9562 25.2473 33.8455 25.2728 33.7335 25.2728C33.6215 25.2728 33.5107 25.2473 33.4085 25.198C33.3063 25.1488 33.215 25.0768 33.1406 24.9869C33.0662 24.8971 33.0104 24.7913 32.9769 24.6766C32.9433 24.5619 32.9328 24.4408 32.9459 24.3214C32.9688 24.1144 33.0616 23.9236 33.2067 23.7852C33.3519 23.6468 33.5393 23.5703 33.7335 23.5703C33.9277 23.5703 34.1151 23.6468 34.2602 23.7852C34.4054 23.9236 34.4982 24.1144 34.521 24.3214Z" fill="#563016"/>
<path d="M45.4694 20.6447C45.4694 20.7964 45.4141 20.9419 45.3152 21.0503C45.2164 21.1586 45.0819 21.221 44.9407 21.2241H41.3279C41.2566 21.2257 41.1858 21.2118 41.1196 21.1832C41.0535 21.1547 40.9934 21.1121 40.9429 21.058C40.8925 21.0038 40.8528 20.9393 40.8262 20.8683C40.7996 20.7973 40.7867 20.7213 40.7882 20.6447C40.7882 20.4911 40.8451 20.3437 40.9463 20.2351C41.0475 20.1265 41.1848 20.0654 41.3279 20.0654H44.9407C45.081 20.0714 45.2139 20.1347 45.3122 20.2424C45.4105 20.3501 45.4667 20.494 45.4694 20.6447Z" fill="#563016"/>
<path d="M35.8206 20.6447C35.8206 20.7984 35.7638 20.9457 35.6625 21.0544C35.5613 21.163 35.424 21.2241 35.2809 21.2241H31.6681C31.525 21.2241 31.3877 21.163 31.2865 21.0544C31.1853 20.9457 31.1284 20.7984 31.1284 20.6447C31.1312 20.492 31.189 20.3464 31.2896 20.2385C31.3902 20.1305 31.5259 20.0685 31.6681 20.0654H35.2809C35.4232 20.0685 35.5588 20.1305 35.6594 20.2385C35.76 20.3464 35.8178 20.492 35.8206 20.6447Z" fill="#563016"/>
<path d="M40.083 29.9254C40.0802 30.0781 40.0224 30.2237 39.9218 30.3316C39.8212 30.4396 39.6856 30.5016 39.5433 30.5047C38.8393 30.5047 38.1641 30.2045 37.6663 29.6701C37.1685 29.1358 36.8888 28.4111 36.8888 27.6554V25.681C36.8873 25.6045 36.9002 25.5284 36.9268 25.4574C36.9534 25.3864 36.9931 25.3219 37.0435 25.2678C37.0939 25.2137 37.154 25.171 37.2202 25.1425C37.2864 25.114 37.3572 25.1001 37.4285 25.1017C37.5716 25.1017 37.7089 25.1627 37.8101 25.2714C37.9114 25.38 37.9682 25.5274 37.9682 25.681V27.6436C37.9682 28.092 38.1342 28.522 38.4295 28.839C38.7249 29.1561 39.1256 29.3342 39.5433 29.3342C39.6874 29.3373 39.8247 29.401 39.9256 29.5115C40.0265 29.622 40.083 29.7706 40.083 29.9254Z" fill="#563016"/>
<path d="M18.5279 74.2497H17.4265C17.4216 74.2105 17.4216 74.1707 17.4265 74.1315C18.1535 70.3955 18.1535 65.2526 17.4265 58.4664C17.4104 58.3096 17.453 58.1524 17.545 58.0293C17.6369 57.9063 17.7706 57.8275 17.9166 57.8102C18.0627 57.793 18.2092 57.8387 18.3238 57.9374C18.4384 58.036 18.5119 58.1795 18.5279 58.3363C19.2329 65.1935 19.2439 70.3955 18.5279 74.2497Z" fill="#3A5D9B"/>
<path d="M80 72.1562V74.237C80 75.1238 78.3808 75.8568 76.3872 75.8568C74.3936 75.8568 72.7854 75.1356 72.7744 74.2489V72.1562C72.7744 73.043 74.4046 73.7641 76.3872 73.7641C78.3698 73.7641 80 73.043 80 72.1562Z" fill="#E57E38"/>
<path d="M80 70.123V72.2038C80 73.0905 78.3808 73.8117 76.3872 73.8117C74.3936 73.8117 72.7744 73.0905 72.7744 72.2038V70.123C72.7744 71.0098 74.4046 71.7309 76.3872 71.7309C78.3698 71.7309 80 70.9625 80 70.123Z" fill="#FCBC4B"/>
<path d="M80 67.9834V70.1233C80 71.01 78.3808 71.7312 76.3872 71.7312C74.3936 71.7312 72.7744 71.01 72.7744 70.1233V67.9834C72.7744 68.3735 73.1049 68.7519 73.6225 69.0238C75.3877 69.7965 77.3646 69.7965 79.1298 69.0238C79.6805 68.7519 80 68.3735 80 67.9834Z" fill="#E57E38"/>
<path d="M80.0002 65.9023V67.9831C80.0002 68.3733 79.6808 68.7516 79.141 69.0235C77.3759 69.7963 75.3989 69.7963 73.6338 69.0235C73.1161 68.7516 72.7856 68.3733 72.7856 67.9831V65.9023C72.7856 66.789 74.4158 67.5102 76.3984 67.5102C78.381 67.5102 80.0002 66.789 80.0002 65.9023Z" fill="#FCBC4B"/>
<path d="M80 65.9025C80 66.7892 78.3808 67.5104 76.3872 67.5104C74.3936 67.5104 72.7744 66.7892 72.7744 65.9025C72.7744 65.0158 74.4046 64.2828 76.3872 64.2828C77.0639 64.2743 77.7384 64.3658 78.3918 64.5547C79.3721 64.8384 80 65.3941 80 65.9025Z" fill="#E57E38"/>
<path d="M78.3917 57.8037V64.5545C77.7383 64.3656 77.0638 64.2741 76.3871 64.2826V61.386H75.9025C75.5321 61.3528 75.189 61.164 74.9477 60.8607C74.7063 60.5574 74.5863 60.1641 74.6138 59.7663H55.5916C55.6065 60.1964 55.4732 60.6173 55.2171 60.9486C55.1123 61.0986 54.9758 61.2198 54.8187 61.302C54.6617 61.3842 54.4886 61.4252 54.3139 61.4215H53.8183V70.6905H54.3139C54.6841 70.7324 55.0246 70.9274 55.2631 71.2342C55.5016 71.541 55.6195 71.9354 55.5916 72.3338H72.7743V74.2846H51.8467V57.8037H78.3917Z" fill="#31A88D"/>
<path d="M75.9025 61.3863C75.5322 61.3531 75.1891 61.1643 74.9477 60.861C74.7064 60.5577 74.5864 60.1644 74.6138 59.7666H55.5917C55.6066 60.1967 55.4733 60.6176 55.2172 60.9489C55.1124 61.0989 54.9758 61.2201 54.8188 61.3023C54.6617 61.3846 54.4887 61.4255 54.314 61.4218H53.8184V70.6908H54.314C54.6842 70.7327 55.0247 70.9277 55.2632 71.2345C55.5017 71.5413 55.6195 71.9357 55.5917 72.3342H72.7744V65.9026C72.7744 65.0041 74.4046 64.2829 76.3872 64.2829V61.3863H75.9025ZM66.397 67.4277C66.2612 67.1879 66.0504 67.0077 65.8022 66.9193H65.648V68.74C65.825 68.7033 65.9908 68.6204 66.131 68.4988C66.2712 68.3772 66.3814 68.2205 66.4521 68.0425C66.4942 67.9439 66.5113 67.8351 66.5017 67.7272C66.492 67.6192 66.4559 67.5159 66.397 67.4277ZM63.8086 64.141V64.2829C63.7787 64.3747 63.7691 64.4726 63.7805 64.5691C63.792 64.6655 63.8242 64.7578 63.8746 64.8385C64.0407 65.1077 64.2906 65.3047 64.5796 65.3942V63.4553C64.4097 63.4961 64.2513 63.5795 64.1173 63.6987C63.9833 63.8179 63.8775 63.9695 63.8086 64.141Z" fill="#64DFBF"/>
<path d="M67.322 66.8481C67.1377 66.5343 66.8929 66.2664 66.6041 66.0625C66.3154 65.8586 65.9893 65.7234 65.6478 65.6659V63.3959C65.8507 63.4255 66.0376 63.53 66.1765 63.6915L66.2536 63.7979C66.2672 63.8359 66.2672 63.878 66.2536 63.9161C66.2754 63.9851 66.2754 64.0599 66.2536 64.1289L67.0026 64.389L67.2119 64.4599H67.278C67.343 64.252 67.3659 64.0315 67.345 63.8133C67.3241 63.5952 67.2599 63.3843 67.1568 63.1949C67.0054 62.9369 66.8041 62.7168 66.5666 62.5495C66.3291 62.3822 66.0608 62.2717 65.78 62.2255H65.6148V61.2678C65.6119 61.1162 65.5538 60.9719 65.4529 60.8658C65.352 60.7597 65.2163 60.7003 65.0751 60.7003C65.0047 60.6987 64.9348 60.7123 64.8694 60.7401C64.8039 60.7679 64.7443 60.8094 64.6941 60.8623C64.6438 60.9151 64.6039 60.9782 64.5766 61.0479C64.5494 61.1175 64.5353 61.1923 64.5353 61.2678V62.2727C64.141 62.3279 63.768 62.4966 63.4558 62.761C63.1435 63.0253 62.9038 63.3755 62.762 63.7742V63.9043C62.6814 64.1474 62.6505 64.4062 62.6714 64.6633C62.6923 64.9203 62.7645 65.1695 62.8832 65.3939C63.0688 65.7116 63.3167 65.9819 63.6097 66.1861C63.9026 66.3903 64.2336 66.5234 64.5794 66.5762V68.7043C64.4625 68.6859 64.3507 68.6404 64.2518 68.571C64.1529 68.5016 64.0693 68.4099 64.0067 68.3023C63.9852 68.2544 63.974 68.2018 63.974 68.1486C63.974 68.0954 63.9852 68.0429 64.0067 67.9949L62.9823 67.6403C62.9149 67.8472 62.8898 68.0674 62.9088 68.2857C62.9278 68.504 62.9904 68.7153 63.0924 68.9053C63.2443 69.164 63.4455 69.3852 63.6829 69.5544C63.9202 69.7235 64.1882 69.8367 64.4693 69.8866H64.6014V70.5014C64.6014 70.5769 64.6155 70.6517 64.6427 70.7213C64.67 70.7909 64.7099 70.854 64.7602 70.9069C64.8104 70.9597 64.87 71.0013 64.9354 71.0291C65.0009 71.0569 65.0708 71.0704 65.1411 71.0688C65.2824 71.0689 65.418 71.0095 65.5189 70.9034C65.6198 70.7973 65.678 70.6529 65.6809 70.5014V69.8511C66.0804 69.7948 66.4586 69.6248 66.7762 69.3587C67.0938 69.0926 67.3393 68.7401 67.4873 68.3378C67.5636 68.0918 67.5883 67.8307 67.5598 67.5731C67.5312 67.3156 67.45 67.0681 67.322 66.8481ZM64.5794 65.3939C64.2707 65.3088 64.0033 65.102 63.8304 64.8146C63.78 64.7339 63.7478 64.6416 63.7363 64.5452C63.7248 64.4487 63.7344 64.3507 63.7643 64.259V64.1171C63.8322 63.9469 63.9363 63.7962 64.0683 63.6771C64.2003 63.558 64.3565 63.4738 64.5243 63.4314L64.5794 65.3939ZM66.4629 67.9595C66.3923 68.1375 66.282 68.2942 66.1418 68.4158C66.0017 68.5374 65.8358 68.6202 65.6588 68.657V66.86H65.813C66.0612 66.9483 66.2721 67.1285 66.4078 67.3683C66.465 67.4576 66.4991 67.5614 66.5069 67.6694C66.5146 67.7773 66.4956 67.8856 66.4519 67.9831L66.4629 67.9595Z" fill="#31A88D"/>
<path d="M64.5797 63.4551V65.394C64.2711 65.3089 64.0036 65.1021 63.8307 64.8147C63.7803 64.7339 63.7481 64.6417 63.7366 64.5452C63.7252 64.4488 63.7348 64.3508 63.7647 64.259V64.1171C63.8406 63.9443 63.9544 63.7938 64.0963 63.6785C64.2383 63.5632 64.4041 63.4865 64.5797 63.4551Z" fill="#64DFBF"/>
<path d="M66.452 67.9835C66.3814 68.1615 66.2712 68.3182 66.131 68.4398C65.9908 68.5614 65.8249 68.6443 65.6479 68.681V66.8604H65.8022C66.0503 66.9487 66.2612 67.1289 66.3969 67.3687C66.4558 67.4569 66.4919 67.5602 66.5016 67.6682C66.5113 67.7761 66.4942 67.8849 66.452 67.9835Z" fill="#64DFBF"/>
</g>
<defs>
<clipPath id="clip0_73_283">
<rect width="70.4931" height="75.6654" fill="white" transform="translate(9.50684 0.369141)"/>
</clipPath>
</defs>
</svg>
