<svg width="68" height="70" viewBox="0 0 68 70" fill="none" xmlns="http://www.w3.org/2000/svg">
<path d="M51.6691 66.8134H31.564V14.5312H53.5538V58.2192L51.6691 61.0913V66.8134Z" fill="#2A1CC1"/>
<path d="M35.0407 6.52441H31.564L28.6919 29.4864L31.5645 66.1337L35.0407 65.6458V6.52441Z" fill="#3425D6"/>
<path d="M4.10172 0.776367V6.52474H0.823242V65.6462L19.3575 67.8464L31.5645 66.134V0.776367H4.10172Z" fill="#0560FD"/>
<path d="M10.876 14.5762H14.9147V20.3203H10.876V14.5762Z" fill="#F3FFFB"/>
<path d="M20.9282 14.5762H24.9669V20.3203H20.9282V14.5762Z" fill="#F3FFFB"/>
<path d="M10.876 26.0645H14.9147V31.8086H10.876V26.0645Z" fill="#F3FFFB"/>
<path d="M20.9282 26.0645H24.9669V31.8086H20.9282V26.0645Z" fill="#F3FFFB"/>
<path d="M10.876 37.5527H14.9147V43.2969H10.876V37.5527Z" fill="#F3FFFB"/>
<path d="M20.9282 37.5527H24.9669V43.2969H20.9282V37.5527Z" fill="#F3FFFB"/>
<path d="M10.876 49.041H14.9147V54.7852H10.876V49.041Z" fill="#F3FFFB"/>
<path d="M20.9282 49.041H24.9669V54.7852H20.9282V49.041Z" fill="#F3FFFB"/>
<path d="M40.2251 26.0654H44.2638V31.8096H40.2251V26.0654Z" fill="white"/>
<path d="M40.2251 37.5537H44.2638V43.2979H40.2251V37.5537Z" fill="#FFD27B"/>
<path d="M49.5269 57.5234H53.5661V67.576H49.5269V57.5234Z" fill="#8F4D24"/>
<path d="M51.5469 64.4142C42.75 64.4142 35.5928 57.257 35.5928 48.46C35.5928 39.6631 42.75 32.5068 51.5469 32.5068C60.3439 32.5068 67.5001 39.6631 67.5001 48.46C67.5001 57.257 60.3439 64.4142 51.5469 64.4142Z" fill="#07CBFD"/>
<path d="M60.2856 65.6465H31.5637L30.1279 68.272L31.5637 69.6857H60.2856V65.6465Z" fill="#8D9CA8"/>
<path d="M0.823242 65.6465H31.564V69.6857H0.823242V65.6465Z" fill="#AAB8C7"/>
<path d="M52.2473 44.6055H50.7793C47.4877 44.6055 44.7732 47.1896 44.6046 50.4837L44.2575 57.2647C44.1895 58.5928 45.2459 59.707 46.573 59.707H56.4535C57.7806 59.707 58.8369 58.5928 58.769 57.2647L58.4219 50.4837C58.2535 47.1896 55.5389 44.6055 52.2473 44.6055Z" fill="white"/>
<path d="M53.5479 53.8148C53.5479 52.8248 52.7395 52.0193 51.7459 52.0193H51.2801C50.6729 52.0193 50.179 51.5282 50.179 50.9246C50.179 50.321 50.6729 49.8299 51.2801 49.8299H52.8575C53.051 49.8299 53.2079 49.673 53.2079 49.4795C53.2079 49.286 53.051 49.1291 52.8575 49.1291H51.8633V48.2323C51.8633 48.0388 51.7064 47.8818 51.5129 47.8818C51.3194 47.8818 51.1625 48.0388 51.1625 48.2323V49.1333C50.2235 49.1939 49.478 49.9739 49.478 50.9246C49.478 51.9147 50.2864 52.7202 51.28 52.7202H51.7458C52.353 52.7202 52.8469 53.2112 52.8469 53.8148C52.8469 54.4184 52.353 54.9095 51.7458 54.9095H50.1684C49.9749 54.9095 49.8179 55.0664 49.8179 55.2599C49.8179 55.4534 49.9749 55.6104 50.1684 55.6104H51.1625V56.5072C51.1625 56.7007 51.3194 56.8576 51.5129 56.8576C51.7064 56.8576 51.8633 56.7007 51.8633 56.5072V55.6061C52.8024 55.5455 53.5479 54.7655 53.5479 53.8148Z" fill="#4A3AFF"/>
<path d="M53.7683 37.5503C54.2311 37.242 55.0294 37.1419 55.5391 37.3631C57.8684 38.3741 54.1425 42.5332 54.1425 42.5332H48.8619C48.8619 42.5332 45.1259 38.3322 47.5261 37.3486C48.0802 37.1194 48.7214 37.1907 49.2195 37.517C49.7336 37.8437 51.7171 38.9171 53.7683 37.5503Z" fill="white"/>
<path d="M60.2872 47.4648C60.1622 47.4648 60.0412 47.3977 59.9781 47.2799C59.9736 47.2717 59.5468 46.4885 58.7027 45.7731C57.593 44.8325 56.3156 44.4436 54.9064 44.6167C54.7138 44.6406 54.5394 44.5038 54.5158 44.3117C54.4922 44.1196 54.6287 43.9447 54.8209 43.9211C56.4192 43.7246 57.9253 44.1863 59.1768 45.2563C60.1142 46.0578 60.5768 46.9132 60.596 46.9492C60.7241 47.1744 60.5435 47.4708 60.2872 47.4648Z" fill="white"/>
<path d="M55.1 43.9593C55.0494 43.9593 54.9981 43.9483 54.9495 43.925C54.7756 43.8418 54.7012 43.6344 54.7836 43.46C54.7943 43.4374 55.8782 41.2203 58.4547 42.3633C61.0579 43.5181 62.3032 42.7867 62.3155 42.7792C62.4777 42.6738 62.693 42.7212 62.7983 42.8837C62.9036 43.046 62.8555 43.2642 62.6932 43.3696C62.6318 43.4093 61.1568 44.3288 58.1705 43.004C57.3495 42.6399 56.6422 42.6513 56.0682 43.038C55.6261 43.3359 55.4186 43.7568 55.4166 43.761C55.3559 43.886 55.2304 43.9593 55.1 43.9593Z" fill="white"/>
<path d="M54.5418 42.1465H48.4895C47.7065 42.1465 47.0718 42.7812 47.0718 43.5642V43.5942C47.0718 44.3772 47.7065 45.0119 48.4895 45.0119H54.5418C55.3248 45.0119 55.9595 44.3772 55.9595 43.5942V43.5642C55.9595 42.7813 55.3248 42.1465 54.5418 42.1465Z" fill="#E3DEFF"/>
</svg>
